# xmcd
#
# Track frame offsets:
#	150
#	12519
#	25416
#	36150
#	47531
#	64629
#	76717
#	90101
#	99875
#	113517
#
# Disc length: 1702 seconds
#
# Revision: 1
# Processed by: cddbd v1.4PL0 Copyright (c) Steve Scherf et al.
# Submitted via: audiograbber 1.82.02
#
DISCID=6106a40a
DTITLE=Charlie Rich and Johnny Paycheck - Back To Back
DYEAR=2002
DGENRE=Country
TTITLE0=Behind Closed Doors
TTITLE1=The Most Beautiful Girl
TTITLE2=There Won't Be Anymore
TTITLE3=Rollin' With The Flow
TTITLE4=My Elusive Dreams
TTITLE5=Take This Job and Shove It
TTITLE6=She's All I Got
TTITLE7=Mr. Lovemaker
TTITLE8=Someone To Give My Love To
TTITLE9=Friend, Lover, Wife
EXTD=
EXTT0=
EXTT1=
EXTT2=
EXTT3=
EXTT4=
EXTT5=
EXTT6=
EXTT7=
EXTT8=
EXTT9=
PLAYORDER=
